# xmcd
#
# Track frame offsets: 
#        150
#        14317
#        37322
#        57011
#        79299
#        99122
#        115229
#        131400
#        148641
#        165252
#        178745
#        197376
#        212107
#        234355
#        248951
#        267965
#        289211
#        312367
#        330154
#
# Disc length: 4774 seconds
#
# Revision: 0
# Processed by: cddbd v1.5.2PL0 Copyright (c) Steve Scherf et al.
# Submitted via: ExactAudioCopy v0.99pb4
#
DISCID=0412a413
DTITLE=Eric Clapton - Greatest Hits CD1
DYEAR=1900
DGENRE=Blues
TTITLE0=After Midnight
TTITLE1=Let It Rain
TTITLE2=I Shot The Sheriff
TTITLE3=Let It Grow
TTITLE4=Knocking'On Heaven's Door
TTITLE5=Hello Old Friend
TTITLE6=Cocaine
TTITLE7=Lay Down Sally
TTITLE8=Wonderful Tonight
TTITLE9=Promises
TTITLE10=I Can't Stand It
TTITLE11=I've Got A Rock'N'Roll Heart
TTITLE12=She's Waiting
TTITLE13=Forever Man
TTITLE14=It's In The Way That You Use It
TTITLE15=Pretending
TTITLE16=Bad Love
TTITLE17=Before you accuse me
TTITLE18=Ranning On Faith
EXTD=
EXTT0=
EXTT1=
EXTT2=
EXTT3=
EXTT4=
EXTT5=
EXTT6=
EXTT7=
EXTT8=
EXTT9=
EXTT10=
EXTT11=
EXTT12=
EXTT13=
EXTT14=
EXTT15=
EXTT16=
EXTT17=
EXTT18=
PLAYORDER=
